HIERARCHY
ROOT Hips
{
  OFFSET 51.7433 85.6888 9.51668
  CHANNELS 6 Xposition Yposition Zposition Zrotation Xrotation Yrotation
  JOINT spine
  {
    OFFSET 0 6.3926 0.367606
    CHANNELS 3 Zrotation Xrotation Yrotation
    JOINT spine1
    {
      OFFSET 0 9.17611 0
      CHANNELS 3 Zrotation Xrotation Yrotation
      JOINT spine2
      {
        OFFSET 0 8.79238 0
        CHANNELS 3 Zrotation Xrotation Yrotation
        JOINT Neck
        {
          OFFSET 0 22.5737 1.07624
          CHANNELS 3 Zrotation Xrotation Yrotation
          JOINT Head
          {
            OFFSET 0 6.82011 0
            CHANNELS 3 Zrotation Xrotation Yrotation
            End Site
            {
              OFFSET 0 16.5085 -5.44427
            }
          }
        }
        JOINT RightShoulder
        {
          OFFSET -3.70221 9.49509 -0.515508
          CHANNELS 3 Zrotation Xrotation Yrotation
          JOINT RightArm
          {
            OFFSET 0 12.4537 0
            CHANNELS 3 Zrotation Xrotation Yrotation
            JOINT RightArmRoll
            {
              OFFSET 0 6.28686 0
              CHANNELS 3 Zrotation Xrotation Yrotation
              JOINT RightForeArm
              {
                OFFSET 0 18.3114 0
                CHANNELS 3 Zrotation Xrotation Yrotation
                JOINT RightForeArmRoll
                {
                  OFFSET 0 7.05483 0
                  CHANNELS 3 Zrotation Xrotation Yrotation
                  JOINT RightHand
                  {
                    OFFSET 0 14.1575 0
                    CHANNELS 3 Zrotation Xrotation Yrotation
                    End Site
                    {
                      OFFSET 0 0 0
                    }
                  }
                }
              }
            }
          }
        }
        JOINT LeftShoulder
        {
          OFFSET 3.70221 9.49509 -0.515508
          CHANNELS 3 Zrotation Xrotation Yrotation
          JOINT LeftArm
          {
            OFFSET 0 12.4537 0
            CHANNELS 3 Zrotation Xrotation Yrotation
            JOINT LeftArmRoll
            {
              OFFSET 0 6.28686 0
              CHANNELS 3 Zrotation Xrotation Yrotation
              JOINT LeftForeArm
              {
                OFFSET 0 18.3114 0
                CHANNELS 3 Zrotation Xrotation Yrotation
                JOINT LeftForeArmRoll
                {
                  OFFSET 0 7.05482 0
                  CHANNELS 3 Zrotation Xrotation Yrotation
                  JOINT LeftHand
                  {
                    OFFSET 0 14.1575 0
                    CHANNELS 3 Zrotation Xrotation Yrotation
                    End Site
                    {
                      OFFSET 0 0 0
                    }
                  }
                }
              }
            }
          }
        }
      }
    }
  }
  JOINT RightUpLeg
  {
    OFFSET -5.66616 -1.03903 -0.87161
    CHANNELS 3 Zrotation Xrotation Yrotation
    JOINT RightUpLegRoll
    {
      OFFSET 0 16.6005 0
      CHANNELS 3 Zrotation Xrotation Yrotation
      JOINT RightLeg
      {
        OFFSET 0 -20.5572 0
        CHANNELS 3 Zrotation Xrotation Yrotation
        JOINT RightLegRoll
        {
          OFFSET 0 20.6244 0
          CHANNELS 3 Zrotation Xrotation Yrotation
          JOINT RightFoot
          {
            OFFSET 0 17.1664 0
            CHANNELS 3 Zrotation Xrotation Yrotation
            JOINT RightToeBase
            {
              OFFSET 0 14.3502 0
              CHANNELS 3 Zrotation Xrotation Yrotation
              End Site
              {
                OFFSET 0.00608252 6.94971 -0.80106
              }
            }
          }
        }
      }
    }
  }
  JOINT LeftUpLeg
  {
    OFFSET 5.66616 -1.03903 -0.87161
    CHANNELS 3 Zrotation Xrotation Yrotation
    JOINT LeftUpLegRoll
    {
      OFFSET 0 16.6006 0
      CHANNELS 3 Zrotation Xrotation Yrotation
      JOINT LeftLeg
      {
        OFFSET 0 20.5571 0
        CHANNELS 3 Zrotation Xrotation Yrotation
        JOINT LeftLegRoll
        {
          OFFSET 0 20.8151 0
          CHANNELS 3 Zrotation Xrotation Yrotation
          JOINT LeftFoot
          {
            OFFSET 0 16.9757 0
            CHANNELS 3 Zrotation Xrotation Yrotation
            JOINT LeftToeBase
            {
              OFFSET 0 14.3502 0
              CHANNELS 3 Zrotation Xrotation Yrotation
              End Site
              {
                OFFSET -0.0272592 6.94971 -0.80106
              }
            }
          }
        }
      }
    }
  }
}
MOTION
Frames: 5
Frame Time: 0.00208333
51.3663 85.5937 10.3507 -2.34529 -4.82532 -1.57668 -0.0710851 -1.16294 -0.101292 -0.144188 1.67704 -0.198748 -0.141975 3.32211 -0.196577 0.349906 14.958 -7.82159 0.15684 1.35051 -7.75178 56.8156 2.39751 1.82377 119.23 24.6203 -53.2717 -6.81019e-006 4.2638e-006 -7.61187e-006 -157.529 65.3053 136.659 4.36761e-006 2.02107e-006 -3.00166 8.02894 -4.95144 0.697706 -50.0808 3.42949 -3.66519 -117.259 26.2705 24.5341 4.40746e-006 -2.73485e-006 2.51723e-006 170.92 69.2749 -160.187 -2.94489e-007 -1.44088e-006 3 -8.02891 -4.95145 -0.697669 177.562 -3.75065 -0.00559887 180 7.01536e-015 178.876 177.076 4.93984 179.767 1.5948e-006 1.71921e-006 0.0470214 -18.6001 67.9298 19.4745 8.13649 25.2327 -3.48774 -172.859 -3.05091 -1.14898 4.54188e-006 -4.6773e-006 -1.04413 -1.25515 -9.72236 0.524534 -1.36302e-006 -6.64027e-007 -0.120868 19.4857 70.9957 -22.2455 -8.13655 25.2336 3.4865 
51.3566 85.6174 10.3516 -2.35296 -4.8298 -1.57396 -0.0703297 -1.16206 -0.101483 -0.14262 1.67881 -0.198858 -0.140402 3.32387 -0.196705 0.339981 14.9491 -7.83112 0.180996 1.34938 -7.76286 56.755 2.49175 1.8939 119.308 24.7272 -53.907 -6.81019e-006 4.2638e-006 -7.61187e-006 -157.089 65.6209 136.297 4.36761e-006 2.02107e-006 -3.00166 8.02894 -4.95144 0.697706 -50.0207 3.50846 -3.73343 -117.406 26.4634 24.6117 4.40746e-006 -2.73485e-006 2.51723e-006 170.973 69.2868 -160.279 -2.94489e-007 -1.44088e-006 3 -8.02891 -4.95145 -0.697669 177.574 -3.75387 -0.0122321 180 7.01536e-015 178.876 177.079 4.94045 179.767 1.5948e-006 1.71921e-006 0.0470214 -18.5996 67.9292 19.4735 8.13649 25.2327 -3.48774 -172.847 -3.04986 -1.15669 4.54188e-006 -4.6773e-006 -1.04351 -1.25637 -9.72435 0.525437 -1.36302e-006 -6.64027e-007 -0.120513 19.4763 70.9916 -22.2405 -8.13655 25.2336 3.4865 
51.3471 85.6149 10.3425 -2.36111 -4.83375 -1.5714 -0.0694578 -1.16138 -0.10166 -0.140809 1.68017 -0.198896 -0.138586 3.32523 -0.196764 0.328464 14.9421 -7.84018 0.207437 1.34637 -7.77383 56.6917 2.58272 1.96249 119.39 24.8467 -54.5292 -6.81019e-006 4.2638e-006 -7.61187e-006 -156.648 65.9458 135.95 4.36761e-006 2.02107e-006 -3.00166 8.02894 -4.95144 0.697706 -49.96 3.58865 -3.80278 -117.556 26.6606 24.6636 4.40746e-006 -2.73485e-006 2.51723e-006 171.035 69.3018 -160.392 -2.94489e-007 -1.44088e-006 3 -8.02891 -4.95145 -0.697669 177.586 -3.7566 -0.0194084 180 7.01536e-015 178.876 177.082 4.94103 179.766 1.5948e-006 1.71921e-006 0.0470214 -18.5991 67.9286 19.4723 8.13649 25.2327 -3.48774 -172.834 -3.04841 -1.16474 4.54188e-006 -4.6773e-006 -1.04285 -1.25764 -9.72594 0.526471 -1.36302e-006 -6.64027e-007 -0.120173 19.4668 70.9872 -22.2352 -8.13655 25.2336 3.4865 
51.3551 85.5913 10.3366 -2.36959 -4.83724 -1.56903 -0.0685115 -1.16087 -0.101829 -0.138839 1.68119 -0.198876 -0.136611 3.32625 -0.196767 0.315784 14.9363 -7.84897 0.235582 1.34201 -7.78476 56.6267 2.67113 2.02985 119.475 24.9751 -55.138 -6.81019e-006 4.2638e-006 -7.61187e-006 -156.208 66.2757 135.615 4.36761e-006 2.02107e-006 -3.00166 8.02894 -4.95144 0.697706 -49.8988 3.67005 -3.87321 -117.708 26.8598 24.6935 4.40746e-006 -2.73485e-006 2.51723e-006 171.105 69.3186 -160.521 -2.94489e-007 -1.44088e-006 3 -8.02891 -4.95145 -0.697669 177.599 -3.75892 -0.0269638 180 7.01536e-015 178.876 177.086 4.94155 179.766 1.5948e-006 1.71921e-006 0.0470214 -18.5986 67.9279 19.4711 8.13649 25.2327 -3.48774 -172.82 -3.04669 -1.17299 4.54188e-006 -4.6773e-006 -1.04216 -1.25893 -9.72715 0.527608 -1.36302e-006 -6.64027e-007 -0.119847 19.4573 70.9826 -22.2296 -8.13655 25.2336 3.4865 
51.3506 85.602 10.3348 -2.37825 -4.84035 -1.56686 -0.067533 -1.16049 -0.101992 -0.1368 1.68195 -0.198812 -0.134566 3.32701 -0.196727 0.302374 14.9313 -7.85766 0.26485 1.33687 -7.79576 56.5609 2.75773 2.09628 119.563 25.1088 -55.7331 -6.81019e-006 4.2638e-006 -7.61187e-006 -155.769 66.6061 135.29 4.36761e-006 2.02107e-006 -3.00166 8.02894 -4.95144 0.697706 -49.8374 3.75267 -3.94466 -117.859 27.0587 24.7049 4.40746e-006 -2.73485e-006 2.51723e-006 171.181 69.3363 -160.662 -2.94489e-007 -1.44088e-006 3 -8.02891 -4.95145 -0.697669 177.612 -3.76089 -0.0347341 180 7.01536e-015 178.876 177.089 4.94202 179.766 1.5948e-006 1.71921e-006 0.0470214 -18.598 67.9272 19.4699 8.13649 25.2327 -3.48774 -172.807 -3.04479 -1.18131 4.54188e-006 -4.6773e-006 -1.04145 -1.26023 -9.72802 0.528823 -1.36302e-006 -6.64027e-007 -0.119534 19.4479 70.9778 -22.2239 -8.13655 25.2336 3.4865 
